<?xml version="1.0" encoding="UTF-8"?> <svg xmlns="http://www.w3.org/2000/svg" id="Layer_2" data-name="Layer 2" viewBox="0 0 74.6 40.9"><defs><style> .cls-1 { fill: none; stroke: #004996; stroke-linecap: round; stroke-linejoin: round; stroke-width: 2.7px; } </style></defs><g id="Layer_1-2" data-name="Layer 1"><g><path class="cls-1" d="M18.2,13.6V4.4c0-1.7,1.4-3.1,3.1-3.1h49c1.7,0,3.1,1.4,3.1,3.1V36.5c0,1.7-1.4,3.1-3.1,3.1H21.2c-1.7,0-3.1-1.4-3.1-3.1v-6.1"></path><path class="cls-1" d="M68.7,5.9l-16.5,16.5c-3.6,3.6-9.4,3.6-13,0L22.8,5.9"></path><line class="cls-1" x1="22.8" y1="35" x2="35" y2="22.8"></line><line class="cls-1" x1="68.7" y1="35" x2="56.4" y2="22.8"></line><line class="cls-1" x1="7.5" y1="13.6" x2="22.8" y2="13.6"></line><line class="cls-1" x1="1.3" y1="19.7" x2="18.2" y2="19.7"></line><line class="cls-1" x1="9" y1="25.8" x2="24.3" y2="25.8"></line></g></g></svg> 