<?xml version="1.0" encoding="UTF-8"?> <svg xmlns="http://www.w3.org/2000/svg" id="Layer_2" data-name="Layer 2" viewBox="0 0 67.2 68.8"><defs><style> .cls-1 { fill: none; stroke: #004996; stroke-linecap: round; stroke-linejoin: round; stroke-width: 2.5px; } </style></defs><g id="Layer_1-2" data-name="Layer 1"><g><path class="cls-1" d="M9,30.5H4.3c-1.7,0-3.1,1.5-3.1,3.4v8.6c0,1.9,1.4,3.4,3.1,3.4h4.6V24.9C9,13.5,20.4,1.3,34.4,1.3s25.4,12.3,25.4,23.6v11.8"></path><path class="cls-1" d="M59.8,30.5h3.1c1.7,0,3.1,1.5,3.1,3.4v8.6c0,1.9-1.4,3.4-3.1,3.4h-3.1"></path><path class="cls-1" d="M53.7,36.7v4.6c0,5.6-2.9,12.7-7.7,16.4"></path><path class="cls-1" d="M24.4,12c0,10.8,21.5,24.7,32.4,24.7"></path><path class="cls-1" d="M25.9,18.2c-4.6,1.9-10.8,10.5-10.8,17v6.2c0,6.8,4.7,15,12.5,18.5"></path><path class="cls-1" d="M41.3,64.4c0,1.7-1.4,3.1-3.1,3.1h-4.6c-1.7,0-3.1-1.4-3.1-3.1h0c0-1.7,1.4-3.1,3.1-3.1h4.6c1.7,0,3.1,1.4,3.1,3.1h0Z"></path><path class="cls-1" d="M39.8,64.4h1.8c10.1,0,18.2-8.2,18.2-18.2v-4.9"></path></g></g></svg> 