<?xml version="1.0" encoding="UTF-8"?> <svg xmlns="http://www.w3.org/2000/svg" id="Layer_2" data-name="Layer 2" viewBox="0 0 50 50"><defs><style> .cls-1 { fill: #004996; } </style></defs><g id="Layer_1-2" data-name="Layer 1"><g><path class="cls-1" d="M36.9,36.1s0,0,0,0c-.8,.8-1.8,1.2-3,1.4-3.9,.5-9.6-2.1-14.4-6.9-4.8-4.8-7.4-10.5-6.9-14.4,.2-1.2,.6-2.3,1.4-3,0,0,0,0,0,0,.9-.9,2.3-.9,3.2,0l3.5,3.5c.9,.9,.9,2.3,0,3.2l-.8,.8c-.8,.8-.9,2.1,0,2.9l6.8,6.8c.8,.8,2.1,.8,2.9,0l.8-.8c.9-.9,2.4-.9,3.2,0l3.5,3.5c.9,.9,.9,2.3,0,3.2Z"></path><path class="cls-1" d="M42.8,7.5C38.2,2.8,32,.1,25.4,0,18.7-.1,12.4,2.4,7.5,7.2,2.7,12,0,18.3,0,25s1,8.2,3,11.8L0,47.6c-.2,.6,0,1.3,.5,1.8,.5,.5,1.2,.7,1.8,.5l10.8-2.9c3.6,2,7.7,3,11.8,3s.3,0,.5,0c6.6-.1,12.8-2.8,17.4-7.5,4.6-4.7,7.1-10.9,7.1-17.5,0-6.6-2.6-12.8-7.2-17.5ZM25.4,46.4c-3.8,0-7.5-.8-10.7-2.6-.5-.2-1-.4-1.4-.4s-.5,0-.8,.1l-8.1,2.2,2.2-8.1c.2-.8,.1-1.6-.3-2.3-1.7-3.1-2.6-6.7-2.6-10.3,0-5.7,2.3-11.1,6.4-15.2,4.2-4.1,9.6-6.3,15.4-6.2,11.6,.2,21,9.8,21,21.4,0,11.6-9.4,21.2-21,21.4Z"></path></g></g></svg> 