<?xml version="1.0" encoding="UTF-8"?> <svg xmlns="http://www.w3.org/2000/svg" id="Layer_2" data-name="Layer 2" viewBox="0 0 57.9 65"><defs><style> .cls-1 { fill: #004996; } </style></defs><g id="Layer_1-2" data-name="Layer 1"><g><path class="cls-1" d="M43.7,11.9c-.6-2.8-2-5.4-4.1-7.4-2.8-2.9-6.6-4.4-10.7-4.4s-7.8,1.6-10.7,4.4c-2,2-3.5,4.6-4.1,7.4H0v53.2H38.6c5.1,0,9.9-2,13.6-5.6,3.6-3.6,5.6-8.5,5.6-13.6V11.9h-14.2Zm-20.9-2.9c1.6-1.6,3.8-2.5,6.1-2.5s4.5,.9,6.1,2.5c.9,.9,1.6,2,2,3.2-1,.2-2.1,.4-3.1,.6-1.8,.4-3.5,1.1-5.1,1.8-1.6-.8-3.3-1.4-5.1-1.8-1-.3-2-.5-3.1-.6,.4-1.2,1.1-2.3,2-3.2Zm31.6,36.9c0,4.9-2.2,9.2-5.7,12.1,0,0,0,0,0,0-.2,.2-.4,.3-.6,.5s-.4,.3-.6,.4c-.4,.3-.8,.6-1.3,.8-.2,.1-.5,.2-.7,.4-.5,.2-.9,.4-1.4,.6-.3,.1-.5,.2-.8,.3-.2,0-.5,.1-.7,.2-.2,0-.4,.1-.6,.1-.2,0-.3,0-.5,.1-.4,0-.9,.1-1.3,.2-.2,0-.3,0-.5,0-.1,0-.3,0-.4,0-.2,0-.5,0-.7,0H3.4V15.5c0-.1,0-.2,.2-.2h12.7c4.9,0,9.2,1.2,12.6,3.2,3.4-2,7.7-3.2,12.6-3.2h12.7c.1,0,.2,0,.2,.2v30.4Z"></path><g><path class="cls-1" d="M50,25.1c-2.3-2.4-5.6-3.9-9.1-3.9s-6.8,1.5-9.1,3.9c-1.2,1.2-2.1,2.6-2.8,4.2-.7-1.6-1.6-3-2.8-4.2-2.3-2.4-5.6-3.9-9.1-3.9s-6.8,1.5-9.1,3.9c-2.3,2.4-3.8,5.7-3.8,9.3s1.4,6.9,3.8,9.3c2.3,2.4,5.6,3.9,9.1,3.9s1.8,0,2.6-.3c.9-.2,1.7-.5,2.5-.8l.6,.6,5.1,5.2,1.1,1.1,6.8-6.9c.7,.3,1.5,.6,2.2,.8,1,.2,2,.4,3,.4,3.6,0,6.8-1.5,9.1-3.9,2.3-2.4,3.8-5.7,3.8-9.3s-1.4-6.9-3.8-9.3Zm-19.5,17.2c-.5-.1-1-.2-1.5-.2h-.1c-.5,0-.9,0-1.4,.1,.6-.8,1.1-1.7,1.5-2.7,.4,1,.9,1.9,1.5,2.7Zm-13.4,3.4c-6.1,0-11-5-11-11.2s4.9-11.2,11-11.2,11,5,11,11.2-4.9,11.2-11,11.2Zm11.8,5.6l-5.1-5.2c0,0,.1-.2,.2-.3,1.3-1.4,3-2.2,4.8-2.2h.1c1.8,0,3.5,.8,4.8,2.2,0,0,.2,.2,.3,.3l-5.1,5.2Zm12-5.6c-6.1,0-11-5-11-11.2s4.9-11.2,11-11.2,11,5,11,11.2-4.9,11.2-11,11.2Z"></path><path class="cls-1" d="M25.2,34.4c0,3.9-3.1,7.1-6.9,7.1s-6.9-3.2-6.9-7.1,.3-2.5,.9-3.5c.5,1.4,1.7,2.4,3.2,2.4s3.4-1.6,3.4-3.5-.4-1.8-1-2.4c.1,0,.3,0,.4,0,3.8,0,6.9,3.2,6.9,7.1Z"></path><path class="cls-1" d="M46.3,34.4c0,3.9-3.1,7.1-6.9,7.1s-6.9-3.2-6.9-7.1,.3-2.5,.9-3.5c.5,1.4,1.7,2.4,3.2,2.4s3.4-1.6,3.4-3.5-.4-1.8-1-2.4c.1,0,.3,0,.4,0,3.8,0,6.9,3.2,6.9,7.1Z"></path></g></g></g></svg> 