<?xml version="1.0" encoding="UTF-8"?> <svg xmlns="http://www.w3.org/2000/svg" xmlns:xlink="http://www.w3.org/1999/xlink" version="1.1" id="Layer_1" x="0px" y="0px" viewBox="0 0 2000 2000" style="enable-background:new 0 0 2000 2000;" xml:space="preserve"> <style type="text/css"> .st0{fill:#39B54A;} </style> <path class="st0" d="M1045.4,511.1c-256.8,0-465.8,208.9-465.8,465.8c0,84.8,23.6,168.4,68.1,241.6l12.1,19.8l-46.6,173.7 l174.7-46.9l19.7,11.8c72.2,43,154.5,65.8,237.8,65.8c256.9,0,465.9-208.9,465.9-465.8C1511.3,720.1,1302.3,511.1,1045.4,511.1z M1319,1152.9c-17.3,42.1-60.4,69.1-104.1,77.4c-41.8,7.9-76.1-5.4-114.8-18.2c-34.4-11.4-67.7-27.9-98.6-46.9 c-61.7-37.8-115.2-88.5-158-146.7c-13.1-17.9-25.3-36.4-36.5-55.4c-14.8-25.4-28-52-34.9-80.5c-2.8-11.9-4.4-24.1-4.5-36.4 c-0.5-43.2,16-86.8,50.2-114.6c19.8-16.1,49.1-23.2,71.3-10.6c24.2,13.6,36.8,48.1,48,72.2c8.8,18.9,18.7,43.7,15,64.8 c-3.6,21.2-20.3,39.1-33.7,54.9c-9,10.6-10.4,19.6-2.9,31.1c44.3,73.8,105.8,127.3,186,159.3c10.9,4.4,19.4,3,26.5-5.7 c13.9-17.1,27.5-50.5,48.8-59.3c27.9-11.4,58.6,4.4,82.4,18.5c22,13.1,58.8,29.4,64.8,56.5C1326.7,1126.5,1324.1,1140.5,1319,1152.9 z M1045.4,511.1c-256.8,0-465.8,208.9-465.8,465.8c0,84.8,23.6,168.4,68.1,241.6l12.1,19.8l-46.6,173.7l174.7-46.9l19.7,11.8 c72.2,43,154.5,65.8,237.8,65.8c256.9,0,465.9-208.9,465.9-465.8C1511.3,720.1,1302.3,511.1,1045.4,511.1z M1319,1152.9 c-17.3,42.1-60.4,69.1-104.1,77.4c-41.8,7.9-76.1-5.4-114.8-18.2c-34.4-11.4-67.7-27.9-98.6-46.9c-61.7-37.8-115.2-88.5-158-146.7 c-13.1-17.9-25.3-36.4-36.5-55.4c-14.8-25.4-28-52-34.9-80.5c-2.8-11.9-4.4-24.1-4.5-36.4c-0.5-43.2,16-86.8,50.2-114.6 c19.8-16.1,49.1-23.2,71.3-10.6c24.2,13.6,36.8,48.1,48,72.2c8.8,18.9,18.7,43.7,15,64.8c-3.6,21.2-20.3,39.1-33.7,54.9 c-9,10.6-10.4,19.6-2.9,31.1c44.3,73.8,105.8,127.3,186,159.3c10.9,4.4,19.4,3,26.5-5.7c13.9-17.1,27.5-50.5,48.8-59.3 c27.9-11.4,58.6,4.4,82.4,18.5c22,13.1,58.8,29.4,64.8,56.5C1326.7,1126.5,1324.1,1140.5,1319,1152.9z M1045.4,511.1 c-256.8,0-465.8,208.9-465.8,465.8c0,84.8,23.6,168.4,68.1,241.6l12.1,19.8l-46.6,173.7l174.7-46.9l19.7,11.8 c72.2,43,154.5,65.8,237.8,65.8c256.9,0,465.9-208.9,465.9-465.8C1511.3,720.1,1302.3,511.1,1045.4,511.1z M1319,1152.9 c-17.3,42.1-60.4,69.1-104.1,77.4c-41.8,7.9-76.1-5.4-114.8-18.2c-34.4-11.4-67.7-27.9-98.6-46.9c-61.7-37.8-115.2-88.5-158-146.7 c-13.1-17.9-25.3-36.4-36.5-55.4c-14.8-25.4-28-52-34.9-80.5c-2.8-11.9-4.4-24.1-4.5-36.4c-0.5-43.2,16-86.8,50.2-114.6 c19.8-16.1,49.1-23.2,71.3-10.6c24.2,13.6,36.8,48.1,48,72.2c8.8,18.9,18.7,43.7,15,64.8c-3.6,21.2-20.3,39.1-33.7,54.9 c-9,10.6-10.4,19.6-2.9,31.1c44.3,73.8,105.8,127.3,186,159.3c10.9,4.4,19.4,3,26.5-5.7c13.9-17.1,27.5-50.5,48.8-59.3 c27.9-11.4,58.6,4.4,82.4,18.5c22,13.1,58.8,29.4,64.8,56.5C1326.7,1126.5,1324.1,1140.5,1319,1152.9z M1045.4,511.1 c-256.8,0-465.8,208.9-465.8,465.8c0,84.8,23.6,168.4,68.1,241.6l12.1,19.8l-46.6,173.7l174.7-46.9l19.7,11.8 c72.2,43,154.5,65.8,237.8,65.8c256.9,0,465.9-208.9,465.9-465.8C1511.3,720.1,1302.3,511.1,1045.4,511.1z M1319,1152.9 c-17.3,42.1-60.4,69.1-104.1,77.4c-41.8,7.9-76.1-5.4-114.8-18.2c-34.4-11.4-67.7-27.9-98.6-46.9c-61.7-37.8-115.2-88.5-158-146.7 c-13.1-17.9-25.3-36.4-36.5-55.4c-14.8-25.4-28-52-34.9-80.5c-2.8-11.9-4.4-24.1-4.5-36.4c-0.5-43.2,16-86.8,50.2-114.6 c19.8-16.1,49.1-23.2,71.3-10.6c24.2,13.6,36.8,48.1,48,72.2c8.8,18.9,18.7,43.7,15,64.8c-3.6,21.2-20.3,39.1-33.7,54.9 c-9,10.6-10.4,19.6-2.9,31.1c44.3,73.8,105.8,127.3,186,159.3c10.9,4.4,19.4,3,26.5-5.7c13.9-17.1,27.5-50.5,48.8-59.3 c27.9-11.4,58.6,4.4,82.4,18.5c22,13.1,58.8,29.4,64.8,56.5C1326.7,1126.5,1324.1,1140.5,1319,1152.9z M1045.4,511.1 c-256.8,0-465.8,208.9-465.8,465.8c0,84.8,23.6,168.4,68.1,241.6l12.1,19.8l-46.6,173.7l174.7-46.9l19.7,11.8 c72.2,43,154.5,65.8,237.8,65.8c256.9,0,465.9-208.9,465.9-465.8C1511.3,720.1,1302.3,511.1,1045.4,511.1z M1319,1152.9 c-17.3,42.1-60.4,69.1-104.1,77.4c-41.8,7.9-76.1-5.4-114.8-18.2c-34.4-11.4-67.7-27.9-98.6-46.9c-61.7-37.8-115.2-88.5-158-146.7 c-13.1-17.9-25.3-36.4-36.5-55.4c-14.8-25.4-28-52-34.9-80.5c-2.8-11.9-4.4-24.1-4.5-36.4c-0.5-43.2,16-86.8,50.2-114.6 c19.8-16.1,49.1-23.2,71.3-10.6c24.2,13.6,36.8,48.1,48,72.2c8.8,18.9,18.7,43.7,15,64.8c-3.6,21.2-20.3,39.1-33.7,54.9 c-9,10.6-10.4,19.6-2.9,31.1c44.3,73.8,105.8,127.3,186,159.3c10.9,4.4,19.4,3,26.5-5.7c13.9-17.1,27.5-50.5,48.8-59.3 c27.9-11.4,58.6,4.4,82.4,18.5c22,13.1,58.8,29.4,64.8,56.5C1326.7,1126.5,1324.1,1140.5,1319,1152.9z M1045.4,511.1 c-256.8,0-465.8,208.9-465.8,465.8c0,84.8,23.6,168.4,68.1,241.6l12.1,19.8l-46.6,173.7l174.7-46.9l19.7,11.8 c72.2,43,154.5,65.8,237.8,65.8c256.9,0,465.9-208.9,465.9-465.8C1511.3,720.1,1302.3,511.1,1045.4,511.1z M1319,1152.9 c-17.3,42.1-60.4,69.1-104.1,77.4c-41.8,7.9-76.1-5.4-114.8-18.2c-34.4-11.4-67.7-27.9-98.6-46.9c-61.7-37.8-115.2-88.5-158-146.7 c-13.1-17.9-25.3-36.4-36.5-55.4c-14.8-25.4-28-52-34.9-80.5c-2.8-11.9-4.4-24.1-4.5-36.4c-0.5-43.2,16-86.8,50.2-114.6 c19.8-16.1,49.1-23.2,71.3-10.6c24.2,13.6,36.8,48.1,48,72.2c8.8,18.9,18.7,43.7,15,64.8c-3.6,21.2-20.3,39.1-33.7,54.9 c-9,10.6-10.4,19.6-2.9,31.1c44.3,73.8,105.8,127.3,186,159.3c10.9,4.4,19.4,3,26.5-5.7c13.9-17.1,27.5-50.5,48.8-59.3 c27.9-11.4,58.6,4.4,82.4,18.5c22,13.1,58.8,29.4,64.8,56.5C1326.7,1126.5,1324.1,1140.5,1319,1152.9z M999.9-0.4 C447.6-0.4-0.1,447.3-0.1,999.7c0,552.3,447.8,1000.1,1000.1,1000.1c552.4,0,1000.1-447.8,1000.1-1000.1 C2000,447.3,1552.3-0.4,999.9-0.4z M1045.4,1551.4c-95,0-189-24-273-69.6l-312.7,83.7l83.4-311.1c-47.2-85.2-72-180.7-72-277.5 c0-316.7,257.6-574.4,574.4-574.4c316.8,0,574.4,257.7,574.4,574.4S1362.2,1551.4,1045.4,1551.4z M1045.4,511.1 c-256.8,0-465.8,208.9-465.8,465.8c0,84.8,23.6,168.4,68.1,241.6l12.1,19.8l-46.6,173.7l174.7-46.9l19.7,11.8 c72.2,43,154.5,65.8,237.8,65.8c256.9,0,465.9-208.9,465.9-465.8C1511.3,720.1,1302.3,511.1,1045.4,511.1z M1319,1152.9 c-17.3,42.1-60.4,69.1-104.1,77.4c-41.8,7.9-76.1-5.4-114.8-18.2c-34.4-11.4-67.7-27.9-98.6-46.9c-61.7-37.8-115.2-88.5-158-146.7 c-13.1-17.9-25.3-36.4-36.5-55.4c-14.8-25.4-28-52-34.9-80.5c-2.8-11.9-4.4-24.1-4.5-36.4c-0.5-43.2,16-86.8,50.2-114.6 c19.8-16.1,49.1-23.2,71.3-10.6c24.2,13.6,36.8,48.1,48,72.2c8.8,18.9,18.7,43.7,15,64.8c-3.6,21.2-20.3,39.1-33.7,54.9 c-9,10.6-10.4,19.6-2.9,31.1c44.3,73.8,105.8,127.3,186,159.3c10.9,4.4,19.4,3,26.5-5.7c13.9-17.1,27.5-50.5,48.8-59.3 c27.9-11.4,58.6,4.4,82.4,18.5c22,13.1,58.8,29.4,64.8,56.5C1326.7,1126.5,1324.1,1140.5,1319,1152.9z M1045.4,511.1 c-256.8,0-465.8,208.9-465.8,465.8c0,84.8,23.6,168.4,68.1,241.6l12.1,19.8l-46.6,173.7l174.7-46.9l19.7,11.8 c72.2,43,154.5,65.8,237.8,65.8c256.9,0,465.9-208.9,465.9-465.8C1511.3,720.1,1302.3,511.1,1045.4,511.1z M1319,1152.9 c-17.3,42.1-60.4,69.1-104.1,77.4c-41.8,7.9-76.1-5.4-114.8-18.2c-34.4-11.4-67.7-27.9-98.6-46.9c-61.7-37.8-115.2-88.5-158-146.7 c-13.1-17.9-25.3-36.4-36.5-55.4c-14.8-25.4-28-52-34.9-80.5c-2.8-11.9-4.4-24.1-4.5-36.4c-0.5-43.2,16-86.8,50.2-114.6 c19.8-16.1,49.1-23.2,71.3-10.6c24.2,13.6,36.8,48.1,48,72.2c8.8,18.9,18.7,43.7,15,64.8c-3.6,21.2-20.3,39.1-33.7,54.9 c-9,10.6-10.4,19.6-2.9,31.1c44.3,73.8,105.8,127.3,186,159.3c10.9,4.4,19.4,3,26.5-5.7c13.9-17.1,27.5-50.5,48.8-59.3 c27.9-11.4,58.6,4.4,82.4,18.5c22,13.1,58.8,29.4,64.8,56.5C1326.7,1126.5,1324.1,1140.5,1319,1152.9z M1045.4,511.1 c-256.8,0-465.8,208.9-465.8,465.8c0,84.8,23.6,168.4,68.1,241.6l12.1,19.8l-46.6,173.7l174.7-46.9l19.7,11.8 c72.2,43,154.5,65.8,237.8,65.8c256.9,0,465.9-208.9,465.9-465.8C1511.3,720.1,1302.3,511.1,1045.4,511.1z M1319,1152.9 c-17.3,42.1-60.4,69.1-104.1,77.4c-41.8,7.9-76.1-5.4-114.8-18.2c-34.4-11.4-67.7-27.9-98.6-46.9c-61.7-37.8-115.2-88.5-158-146.7 c-13.1-17.9-25.3-36.4-36.5-55.4c-14.8-25.4-28-52-34.9-80.5c-2.8-11.9-4.4-24.1-4.5-36.4c-0.5-43.2,16-86.8,50.2-114.6 c19.8-16.1,49.1-23.2,71.3-10.6c24.2,13.6,36.8,48.1,48,72.2c8.8,18.9,18.7,43.7,15,64.8c-3.6,21.2-20.3,39.1-33.7,54.9 c-9,10.6-10.4,19.6-2.9,31.1c44.3,73.8,105.8,127.3,186,159.3c10.9,4.4,19.4,3,26.5-5.7c13.9-17.1,27.5-50.5,48.8-59.3 c27.9-11.4,58.6,4.4,82.4,18.5c22,13.1,58.8,29.4,64.8,56.5C1326.7,1126.5,1324.1,1140.5,1319,1152.9z M1045.4,511.1 c-256.8,0-465.8,208.9-465.8,465.8c0,84.8,23.6,168.4,68.1,241.6l12.1,19.8l-46.6,173.7l174.7-46.9l19.7,11.8 c72.2,43,154.5,65.8,237.8,65.8c256.9,0,465.9-208.9,465.9-465.8C1511.3,720.1,1302.3,511.1,1045.4,511.1z M1319,1152.9 c-17.3,42.1-60.4,69.1-104.1,77.4c-41.8,7.9-76.1-5.4-114.8-18.2c-34.4-11.4-67.7-27.9-98.6-46.9c-61.7-37.8-115.2-88.5-158-146.7 c-13.1-17.9-25.3-36.4-36.5-55.4c-14.8-25.4-28-52-34.9-80.5c-2.8-11.9-4.4-24.1-4.5-36.4c-0.5-43.2,16-86.8,50.2-114.6 c19.8-16.1,49.1-23.2,71.3-10.6c24.2,13.6,36.8,48.1,48,72.2c8.8,18.9,18.7,43.7,15,64.8c-3.6,21.2-20.3,39.1-33.7,54.9 c-9,10.6-10.4,19.6-2.9,31.1c44.3,73.8,105.8,127.3,186,159.3c10.9,4.4,19.4,3,26.5-5.7c13.9-17.1,27.5-50.5,48.8-59.3 c27.9-11.4,58.6,4.4,82.4,18.5c22,13.1,58.8,29.4,64.8,56.5C1326.7,1126.5,1324.1,1140.5,1319,1152.9z M1045.4,511.1 c-256.8,0-465.8,208.9-465.8,465.8c0,84.8,23.6,168.4,68.1,241.6l12.1,19.8l-46.6,173.7l174.7-46.9l19.7,11.8 c72.2,43,154.5,65.8,237.8,65.8c256.9,0,465.9-208.9,465.9-465.8C1511.3,720.1,1302.3,511.1,1045.4,511.1z M1319,1152.9 c-17.3,42.1-60.4,69.1-104.1,77.4c-41.8,7.9-76.1-5.4-114.8-18.2c-34.4-11.4-67.7-27.9-98.6-46.9c-61.7-37.8-115.2-88.5-158-146.7 c-13.1-17.9-25.3-36.4-36.5-55.4c-14.8-25.4-28-52-34.9-80.5c-2.8-11.9-4.4-24.1-4.5-36.4c-0.5-43.2,16-86.8,50.2-114.6 c19.8-16.1,49.1-23.2,71.3-10.6c24.2,13.6,36.8,48.1,48,72.2c8.8,18.9,18.7,43.7,15,64.8c-3.6,21.2-20.3,39.1-33.7,54.9 c-9,10.6-10.4,19.6-2.9,31.1c44.3,73.8,105.8,127.3,186,159.3c10.9,4.4,19.4,3,26.5-5.7c13.9-17.1,27.5-50.5,48.8-59.3 c27.9-11.4,58.6,4.4,82.4,18.5c22,13.1,58.8,29.4,64.8,56.5C1326.7,1126.5,1324.1,1140.5,1319,1152.9z M1045.4,511.1 c-256.8,0-465.8,208.9-465.8,465.8c0,84.8,23.6,168.4,68.1,241.6l12.1,19.8l-46.6,173.7l174.7-46.9l19.7,11.8 c72.2,43,154.5,65.8,237.8,65.8c256.9,0,465.9-208.9,465.9-465.8C1511.3,720.1,1302.3,511.1,1045.4,511.1z M1319,1152.9 c-17.3,42.1-60.4,69.1-104.1,77.4c-41.8,7.9-76.1-5.4-114.8-18.2c-34.4-11.4-67.7-27.9-98.6-46.9c-61.7-37.8-115.2-88.5-158-146.7 c-13.1-17.9-25.3-36.4-36.5-55.4c-14.8-25.4-28-52-34.9-80.5c-2.8-11.9-4.4-24.1-4.5-36.4c-0.5-43.2,16-86.8,50.2-114.6 c19.8-16.1,49.1-23.2,71.3-10.6c24.2,13.6,36.8,48.1,48,72.2c8.8,18.9,18.7,43.7,15,64.8c-3.6,21.2-20.3,39.1-33.7,54.9 c-9,10.6-10.4,19.6-2.9,31.1c44.3,73.8,105.8,127.3,186,159.3c10.9,4.4,19.4,3,26.5-5.7c13.9-17.1,27.5-50.5,48.8-59.3 c27.9-11.4,58.6,4.4,82.4,18.5c22,13.1,58.8,29.4,64.8,56.5C1326.7,1126.5,1324.1,1140.5,1319,1152.9z M1045.4,511.1 c-256.8,0-465.8,208.9-465.8,465.8c0,84.8,23.6,168.4,68.1,241.6l12.1,19.8l-46.6,173.7l174.7-46.9l19.7,11.8 c72.2,43,154.5,65.8,237.8,65.8c256.9,0,465.9-208.9,465.9-465.8C1511.3,720.1,1302.3,511.1,1045.4,511.1z M1319,1152.9 c-17.3,42.1-60.4,69.1-104.1,77.4c-41.8,7.9-76.1-5.4-114.8-18.2c-34.4-11.4-67.7-27.9-98.6-46.9c-61.7-37.8-115.2-88.5-158-146.7 c-13.1-17.9-25.3-36.4-36.5-55.4c-14.8-25.4-28-52-34.9-80.5c-2.8-11.9-4.4-24.1-4.5-36.4c-0.5-43.2,16-86.8,50.2-114.6 c19.8-16.1,49.1-23.2,71.3-10.6c24.2,13.6,36.8,48.1,48,72.2c8.8,18.9,18.7,43.7,15,64.8c-3.6,21.2-20.3,39.1-33.7,54.9 c-9,10.6-10.4,19.6-2.9,31.1c44.3,73.8,105.8,127.3,186,159.3c10.9,4.4,19.4,3,26.5-5.7c13.9-17.1,27.5-50.5,48.8-59.3 c27.9-11.4,58.6,4.4,82.4,18.5c22,13.1,58.8,29.4,64.8,56.5C1326.7,1126.5,1324.1,1140.5,1319,1152.9z"></path> </svg> 